<svg width="60" height="60" viewBox="0 0 60 60" fill="none" xmlns="http://www.w3.org/2000/svg">
<path d="M53.9 32.0133C54.23 29.555 58.3483 28.3333 58.3483 24.4433C58.3483 20.555 48.75 13.75 35 26.6667C41.3533 17.8133 45.9033 2.485 38.6717 2.485C36.2217 2.485 34.3733 4.72167 31.4583 4.72167C27.5 4.72167 27.0133 0 23.3333 0C19.0283 0 15 10.4167 25 25C22.5 22.2917 6.52833 13.9583 3.33 22.885C2.28333 25.8067 6.215 27.52 5.90333 30.4167C5.60666 33.1733 1.575 33.8117 1.575 37.7033C1.575 43.1917 14.9883 45.76 28.315 35.015C27.9067 42.555 29.2433 52.54 34.7433 58.6117C36.9833 61.0833 38.755 59.53 39.4467 58.9233C40.14 58.315 42.12 56.5667 39.755 54.22C33.365 47.875 31.0467 40.5967 30.39 35.2517C33.795 38.9433 50.985 49.8217 56.2517 39.8633C57.72 37.0833 53.5133 34.9017 53.9 32.0133Z" fill="#77B255"/>
</svg>
