<svg width="1064" height="852" viewBox="0 0 1064 852" fill="none" xmlns="http://www.w3.org/2000/svg">
<rect width="1064" height="852" fill="url(#paint0_linear_106_2930)"/>
<rect width="1064" height="852" fill="url(#paint1_linear_106_2930)" fill-opacity="0.6"/>
<rect width="1064" height="852" fill="url(#paint2_linear_106_2930)" fill-opacity="0.6"/>
<path d="M236.907 517.9H230.827L229.707 521H227.787L232.827 507.14H234.927L239.947 521H238.027L236.907 517.9ZM236.387 516.42L233.867 509.38L231.347 516.42H236.387ZM241.764 515.5C241.764 514.367 241.991 513.38 242.444 512.54C242.897 511.687 243.524 511.027 244.324 510.56C245.137 510.093 246.064 509.86 247.104 509.86C248.451 509.86 249.557 510.187 250.424 510.84C251.304 511.493 251.884 512.4 252.164 513.56H250.204C250.017 512.893 249.651 512.367 249.104 511.98C248.571 511.593 247.904 511.4 247.104 511.4C246.064 511.4 245.224 511.76 244.584 512.48C243.944 513.187 243.624 514.193 243.624 515.5C243.624 516.82 243.944 517.84 244.584 518.56C245.224 519.28 246.064 519.64 247.104 519.64C247.904 519.64 248.571 519.453 249.104 519.08C249.637 518.707 250.004 518.173 250.204 517.48H252.164C251.871 518.6 251.284 519.5 250.404 520.18C249.524 520.847 248.424 521.18 247.104 521.18C246.064 521.18 245.137 520.947 244.324 520.48C243.524 520.013 242.897 519.353 242.444 518.5C241.991 517.647 241.764 516.647 241.764 515.5ZM254.212 515.5C254.212 514.367 254.439 513.38 254.892 512.54C255.346 511.687 255.972 511.027 256.772 510.56C257.586 510.093 258.512 509.86 259.552 509.86C260.899 509.86 262.006 510.187 262.872 510.84C263.752 511.493 264.332 512.4 264.612 513.56H262.652C262.466 512.893 262.099 512.367 261.552 511.98C261.019 511.593 260.352 511.4 259.552 511.4C258.512 511.4 257.672 511.76 257.032 512.48C256.392 513.187 256.072 514.193 256.072 515.5C256.072 516.82 256.392 517.84 257.032 518.56C257.672 519.28 258.512 519.64 259.552 519.64C260.352 519.64 261.019 519.453 261.552 519.08C262.086 518.707 262.452 518.173 262.652 517.48H264.612C264.319 518.6 263.732 519.5 262.852 520.18C261.972 520.847 260.872 521.18 259.552 521.18C258.512 521.18 257.586 520.947 256.772 520.48C255.972 520.013 255.346 519.353 254.892 518.5C254.439 517.647 254.212 516.647 254.212 515.5ZM277.341 515.1C277.341 515.447 277.321 515.813 277.281 516.2H268.521C268.587 517.28 268.954 518.127 269.621 518.74C270.301 519.34 271.121 519.64 272.081 519.64C272.867 519.64 273.521 519.46 274.041 519.1C274.574 518.727 274.947 518.233 275.161 517.62H277.121C276.827 518.673 276.241 519.533 275.361 520.2C274.481 520.853 273.387 521.18 272.081 521.18C271.041 521.18 270.107 520.947 269.281 520.48C268.467 520.013 267.827 519.353 267.361 518.5C266.894 517.633 266.661 516.633 266.661 515.5C266.661 514.367 266.887 513.373 267.341 512.52C267.794 511.667 268.427 511.013 269.241 510.56C270.067 510.093 271.014 509.86 272.081 509.86C273.121 509.86 274.041 510.087 274.841 510.54C275.641 510.993 276.254 511.62 276.681 512.42C277.121 513.207 277.341 514.1 277.341 515.1ZM275.461 514.72C275.461 514.027 275.307 513.433 275.001 512.94C274.694 512.433 274.274 512.053 273.741 511.8C273.221 511.533 272.641 511.4 272.001 511.4C271.081 511.4 270.294 511.693 269.641 512.28C269.001 512.867 268.634 513.68 268.541 514.72H275.461ZM281.863 506.2V521H280.043V506.2H281.863ZM295.265 515.1C295.265 515.447 295.245 515.813 295.205 516.2H286.445C286.512 517.28 286.878 518.127 287.545 518.74C288.225 519.34 289.045 519.64 290.005 519.64C290.792 519.64 291.445 519.46 291.965 519.1C292.498 518.727 292.872 518.233 293.085 517.62H295.045C294.752 518.673 294.165 519.533 293.285 520.2C292.405 520.853 291.312 521.18 290.005 521.18C288.965 521.18 288.032 520.947 287.205 520.48C286.392 520.013 285.752 519.353 285.285 518.5C284.818 517.633 284.585 516.633 284.585 515.5C284.585 514.367 284.812 513.373 285.265 512.52C285.718 511.667 286.352 511.013 287.165 510.56C287.992 510.093 288.938 509.86 290.005 509.86C291.045 509.86 291.965 510.087 292.765 510.54C293.565 510.993 294.178 511.62 294.605 512.42C295.045 513.207 295.265 514.1 295.265 515.1ZM293.385 514.72C293.385 514.027 293.232 513.433 292.925 512.94C292.618 512.433 292.198 512.053 291.665 511.8C291.145 511.533 290.565 511.4 289.925 511.4C289.005 511.4 288.218 511.693 287.565 512.28C286.925 512.867 286.558 513.68 286.465 514.72H293.385ZM299.787 511.82C300.107 511.193 300.561 510.707 301.147 510.36C301.747 510.013 302.474 509.84 303.327 509.84V511.72H302.847C300.807 511.72 299.787 512.827 299.787 515.04V521H297.967V510.04H299.787V511.82ZM305.048 515.48C305.048 514.36 305.275 513.38 305.728 512.54C306.182 511.687 306.802 511.027 307.588 510.56C308.388 510.093 309.275 509.86 310.248 509.86C311.208 509.86 312.042 510.067 312.748 510.48C313.455 510.893 313.982 511.413 314.328 512.04V510.04H316.168V521H314.328V518.96C313.968 519.6 313.428 520.133 312.708 520.56C312.002 520.973 311.175 521.18 310.228 521.18C309.255 521.18 308.375 520.94 307.588 520.46C306.802 519.98 306.182 519.307 305.728 518.44C305.275 517.573 305.048 516.587 305.048 515.48ZM314.328 515.5C314.328 514.673 314.162 513.953 313.828 513.34C313.495 512.727 313.042 512.26 312.468 511.94C311.908 511.607 311.288 511.44 310.608 511.44C309.928 511.44 309.308 511.6 308.748 511.92C308.188 512.24 307.742 512.707 307.408 513.32C307.075 513.933 306.908 514.653 306.908 515.48C306.908 516.32 307.075 517.053 307.408 517.68C307.742 518.293 308.188 518.767 308.748 519.1C309.308 519.42 309.928 519.58 310.608 519.58C311.288 519.58 311.908 519.42 312.468 519.1C313.042 518.767 313.495 518.293 313.828 517.68C314.162 517.053 314.328 516.327 314.328 515.5ZM321.764 511.54V518C321.764 518.533 321.877 518.913 322.104 519.14C322.331 519.353 322.724 519.46 323.284 519.46H324.624V521H322.984C321.971 521 321.211 520.767 320.704 520.3C320.197 519.833 319.944 519.067 319.944 518V511.54H318.524V510.04H319.944V507.28H321.764V510.04H324.624V511.54H321.764ZM337.129 515.1C337.129 515.447 337.109 515.813 337.069 516.2H328.309C328.376 517.28 328.742 518.127 329.409 518.74C330.089 519.34 330.909 519.64 331.869 519.64C332.656 519.64 333.309 519.46 333.829 519.1C334.362 518.727 334.736 518.233 334.949 517.62H336.909C336.616 518.673 336.029 519.533 335.149 520.2C334.269 520.853 333.176 521.18 331.869 521.18C330.829 521.18 329.896 520.947 329.069 520.48C328.256 520.013 327.616 519.353 327.149 518.5C326.682 517.633 326.449 516.633 326.449 515.5C326.449 514.367 326.676 513.373 327.129 512.52C327.582 511.667 328.216 511.013 329.029 510.56C329.856 510.093 330.802 509.86 331.869 509.86C332.909 509.86 333.829 510.087 334.629 510.54C335.429 510.993 336.042 511.62 336.469 512.42C336.909 513.207 337.129 514.1 337.129 515.1ZM335.249 514.72C335.249 514.027 335.096 513.433 334.789 512.94C334.482 512.433 334.062 512.053 333.529 511.8C333.009 511.533 332.429 511.4 331.789 511.4C330.869 511.4 330.082 511.693 329.429 512.28C328.789 512.867 328.422 513.68 328.329 514.72H335.249ZM344.783 514.02C344.783 512.66 345.09 511.44 345.703 510.36C346.317 509.267 347.15 508.413 348.203 507.8C349.27 507.187 350.45 506.88 351.743 506.88C353.263 506.88 354.59 507.247 355.723 507.98C356.857 508.713 357.683 509.753 358.203 511.1H356.023C355.637 510.26 355.077 509.613 354.343 509.16C353.623 508.707 352.757 508.48 351.743 508.48C350.77 508.48 349.897 508.707 349.123 509.16C348.35 509.613 347.743 510.26 347.303 511.1C346.863 511.927 346.643 512.9 346.643 514.02C346.643 515.127 346.863 516.1 347.303 516.94C347.743 517.767 348.35 518.407 349.123 518.86C349.897 519.313 350.77 519.54 351.743 519.54C352.757 519.54 353.623 519.32 354.343 518.88C355.077 518.427 355.637 517.78 356.023 516.94H358.203C357.683 518.273 356.857 519.307 355.723 520.04C354.59 520.76 353.263 521.12 351.743 521.12C350.45 521.12 349.27 520.82 348.203 520.22C347.15 519.607 346.317 518.76 345.703 517.68C345.09 516.6 344.783 515.38 344.783 514.02ZM363.033 506.2V521H361.213V506.2H363.033ZM367.375 508.26C367.028 508.26 366.735 508.14 366.495 507.9C366.255 507.66 366.135 507.367 366.135 507.02C366.135 506.673 366.255 506.38 366.495 506.14C366.735 505.9 367.028 505.78 367.375 505.78C367.708 505.78 367.988 505.9 368.215 506.14C368.455 506.38 368.575 506.673 368.575 507.02C368.575 507.367 368.455 507.66 368.215 507.9C367.988 508.14 367.708 508.26 367.375 508.26ZM368.255 510.04V521H366.435V510.04H368.255ZM376.996 509.84C378.33 509.84 379.41 510.247 380.236 511.06C381.063 511.86 381.476 513.02 381.476 514.54V521H379.676V514.8C379.676 513.707 379.403 512.873 378.856 512.3C378.31 511.713 377.563 511.42 376.616 511.42C375.656 511.42 374.89 511.72 374.316 512.32C373.756 512.92 373.476 513.793 373.476 514.94V521H371.656V510.04H373.476V511.6C373.836 511.04 374.323 510.607 374.936 510.3C375.563 509.993 376.25 509.84 376.996 509.84ZM385.689 508.26C385.343 508.26 385.049 508.14 384.809 507.9C384.569 507.66 384.449 507.367 384.449 507.02C384.449 506.673 384.569 506.38 384.809 506.14C385.049 505.9 385.343 505.78 385.689 505.78C386.023 505.78 386.303 505.9 386.529 506.14C386.769 506.38 386.889 506.673 386.889 507.02C386.889 507.367 386.769 507.66 386.529 507.9C386.303 508.14 386.023 508.26 385.689 508.26ZM386.569 510.04V521H384.749V510.04H386.569ZM389.291 515.5C389.291 514.367 389.518 513.38 389.971 512.54C390.425 511.687 391.051 511.027 391.851 510.56C392.665 510.093 393.591 509.86 394.631 509.86C395.978 509.86 397.085 510.187 397.951 510.84C398.831 511.493 399.411 512.4 399.691 513.56H397.731C397.545 512.893 397.178 512.367 396.631 511.98C396.098 511.593 395.431 511.4 394.631 511.4C393.591 511.4 392.751 511.76 392.111 512.48C391.471 513.187 391.151 514.193 391.151 515.5C391.151 516.82 391.471 517.84 392.111 518.56C392.751 519.28 393.591 519.64 394.631 519.64C395.431 519.64 396.098 519.453 396.631 519.08C397.165 518.707 397.531 518.173 397.731 517.48H399.691C399.398 518.6 398.811 519.5 397.931 520.18C397.051 520.847 395.951 521.18 394.631 521.18C393.591 521.18 392.665 520.947 391.851 520.48C391.051 520.013 390.425 519.353 389.971 518.5C389.518 517.647 389.291 516.647 389.291 515.5ZM425.572 507.06L421.532 521H419.492L416.252 509.78L412.892 521L410.872 521.02L406.972 507.06H408.912L411.952 518.88L415.312 507.06H417.352L420.552 518.84L423.612 507.06H425.572ZM432.643 521.18C431.617 521.18 430.683 520.947 429.843 520.48C429.017 520.013 428.363 519.353 427.883 518.5C427.417 517.633 427.183 516.633 427.183 515.5C427.183 514.38 427.423 513.393 427.903 512.54C428.397 511.673 429.063 511.013 429.903 510.56C430.743 510.093 431.683 509.86 432.723 509.86C433.763 509.86 434.703 510.093 435.543 510.56C436.383 511.013 437.043 511.667 437.523 512.52C438.017 513.373 438.263 514.367 438.263 515.5C438.263 516.633 438.01 517.633 437.503 518.5C437.01 519.353 436.337 520.013 435.483 520.48C434.63 520.947 433.683 521.18 432.643 521.18ZM432.643 519.58C433.297 519.58 433.91 519.427 434.483 519.12C435.057 518.813 435.517 518.353 435.863 517.74C436.223 517.127 436.403 516.38 436.403 515.5C436.403 514.62 436.23 513.873 435.883 513.26C435.537 512.647 435.083 512.193 434.523 511.9C433.963 511.593 433.357 511.44 432.703 511.44C432.037 511.44 431.423 511.593 430.863 511.9C430.317 512.193 429.877 512.647 429.543 513.26C429.21 513.873 429.043 514.62 429.043 515.5C429.043 516.393 429.203 517.147 429.523 517.76C429.857 518.373 430.297 518.833 430.843 519.14C431.39 519.433 431.99 519.58 432.643 519.58ZM442.776 511.82C443.096 511.193 443.55 510.707 444.136 510.36C444.736 510.013 445.463 509.84 446.316 509.84V511.72H445.836C443.796 511.72 442.776 512.827 442.776 515.04V521H440.956V510.04H442.776V511.82ZM454.837 521L450.537 516.16V521H448.717V506.2H450.537V514.9L454.757 510.04H457.297L452.137 515.5L457.317 521H454.837ZM463.77 511.54H461.47V521H459.65V511.54H458.23V510.04H459.65V509.26C459.65 508.033 459.964 507.14 460.59 506.58C461.23 506.007 462.25 505.72 463.65 505.72V507.24C462.85 507.24 462.284 507.4 461.95 507.72C461.63 508.027 461.47 508.54 461.47 509.26V510.04H463.77V511.54ZM468.012 506.2V521H466.192V506.2H468.012ZM476.194 521.18C475.168 521.18 474.234 520.947 473.394 520.48C472.568 520.013 471.914 519.353 471.434 518.5C470.968 517.633 470.734 516.633 470.734 515.5C470.734 514.38 470.974 513.393 471.454 512.54C471.948 511.673 472.614 511.013 473.454 510.56C474.294 510.093 475.234 509.86 476.274 509.86C477.314 509.86 478.254 510.093 479.094 510.56C479.934 511.013 480.594 511.667 481.074 512.52C481.568 513.373 481.814 514.367 481.814 515.5C481.814 516.633 481.561 517.633 481.054 518.5C480.561 519.353 479.888 520.013 479.034 520.48C478.181 520.947 477.234 521.18 476.194 521.18ZM476.194 519.58C476.848 519.58 477.461 519.427 478.034 519.12C478.608 518.813 479.068 518.353 479.414 517.74C479.774 517.127 479.954 516.38 479.954 515.5C479.954 514.62 479.781 513.873 479.434 513.26C479.088 512.647 478.634 512.193 478.074 511.9C477.514 511.593 476.908 511.44 476.254 511.44C475.588 511.44 474.974 511.593 474.414 511.9C473.868 512.193 473.428 512.647 473.094 513.26C472.761 513.873 472.594 514.62 472.594 515.5C472.594 516.393 472.754 517.147 473.074 517.76C473.408 518.373 473.848 518.833 474.394 519.14C474.941 519.433 475.541 519.58 476.194 519.58ZM499.107 510.04L495.687 521H493.807L491.167 512.3L488.527 521H486.647L483.207 510.04H485.067L487.587 519.24L490.307 510.04H492.167L494.827 519.26L497.307 510.04H499.107ZM501.793 521.12C501.447 521.12 501.153 521 500.913 520.76C500.673 520.52 500.553 520.227 500.553 519.88C500.553 519.533 500.673 519.24 500.913 519C501.153 518.76 501.447 518.64 501.793 518.64C502.127 518.64 502.407 518.76 502.633 519C502.873 519.24 502.993 519.533 502.993 519.88C502.993 520.227 502.873 520.52 502.633 520.76C502.407 521 502.127 521.12 501.793 521.12Z" fill="#55798D"/>
<rect x="362.49" y="308" width="21.3325" height="81.0633" rx="10.6662" transform="rotate(29.1535 362.49 308)" fill="#55798D" fill-opacity="0.4"/>
<rect width="21.3325" height="81.0633" rx="10.6662" transform="matrix(-0.873317 0.487152 0.487152 0.873317 370.548 308.061)" fill="#55798D" fill-opacity="0.4"/>
<path d="M308.472 458.56H293.88L291.192 466H286.584L298.68 432.736H303.72L315.768 466H311.16L308.472 458.56ZM307.224 455.008L301.176 438.112L295.128 455.008H307.224ZM335.548 466.336C332.444 466.336 329.612 465.616 327.052 464.176C324.492 462.704 322.46 460.672 320.956 458.08C319.484 455.456 318.748 452.512 318.748 449.248C318.748 445.984 319.484 443.056 320.956 440.464C322.46 437.84 324.492 435.808 327.052 434.368C329.612 432.896 332.444 432.16 335.548 432.16C338.684 432.16 341.532 432.896 344.092 434.368C346.652 435.808 348.668 437.824 350.14 440.416C351.612 443.008 352.348 445.952 352.348 449.248C352.348 452.544 351.612 455.488 350.14 458.08C348.668 460.672 346.652 462.704 344.092 464.176C341.532 465.616 338.684 466.336 335.548 466.336ZM335.548 462.544C337.884 462.544 339.98 462 341.836 460.912C343.724 459.824 345.196 458.272 346.252 456.256C347.34 454.24 347.884 451.904 347.884 449.248C347.884 446.56 347.34 444.224 346.252 442.24C345.196 440.224 343.74 438.672 341.884 437.584C340.028 436.496 337.916 435.952 335.548 435.952C333.18 435.952 331.068 436.496 329.212 437.584C327.356 438.672 325.884 440.224 324.796 442.24C323.74 444.224 323.212 446.56 323.212 449.248C323.212 451.904 323.74 454.24 324.796 456.256C325.884 458.272 327.356 459.824 329.212 460.912C331.1 462 333.212 462.544 335.548 462.544ZM361.822 436.096V447.28H374.014V450.88H361.822V462.4H375.454V466H357.454V432.496H375.454V436.096H361.822ZM391.819 432.544C395.467 432.544 398.619 433.232 401.275 434.608C403.963 435.952 406.011 437.888 407.419 440.416C408.859 442.944 409.579 445.92 409.579 449.344C409.579 452.768 408.859 455.744 407.419 458.272C406.011 460.768 403.963 462.688 401.275 464.032C398.619 465.344 395.467 466 391.819 466H381.403V432.544H391.819ZM391.819 462.4C396.139 462.4 399.435 461.264 401.707 458.992C403.979 456.688 405.115 453.472 405.115 449.344C405.115 445.184 403.963 441.936 401.659 439.6C399.387 437.264 396.107 436.096 391.819 436.096H385.771V462.4H391.819ZM419.049 436.096V447.28H431.241V450.88H419.049V462.4H432.681V466H414.681V432.496H432.681V436.096H419.049Z" fill="#153144"/>
<g filter="url(#filter0_d_106_2930)">
<rect x="652" y="228" width="180" height="180" rx="39" fill="#F9F9F9"/>
<rect x="736.538" y="263" width="28.9211" height="109.9" rx="14.4605" transform="rotate(29.1535 736.538 263)" fill="#55798D" fill-opacity="0.4"/>
<rect width="28.9211" height="109.9" rx="14.4605" transform="matrix(-0.873317 0.487152 0.487152 0.873317 747.462 263.083)" fill="#55798D" fill-opacity="0.4"/>
</g>
<g filter="url(#filter1_d_106_2930)">
<rect x="652" y="444" width="180" height="180" rx="39" fill="#0F181E"/>
<rect x="736.538" y="479" width="28.9211" height="109.9" rx="14.4605" transform="rotate(29.1535 736.538 479)" fill="#55798D" fill-opacity="0.4"/>
<rect width="28.9211" height="109.9" rx="14.4605" transform="matrix(-0.873317 0.487152 0.487152 0.873317 747.462 479.083)" fill="#55798D" fill-opacity="0.4"/>
</g>
<defs>
<filter id="filter0_d_106_2930" x="643.4" y="223.4" width="197.2" height="197.2" filterUnits="userSpaceOnUse" color-interpolation-filters="sRGB">
<feFlood flood-opacity="0" result="BackgroundImageFix"/>
<feColorMatrix in="SourceAlpha" type="matrix" values="0 0 0 0 0 0 0 0 0 0 0 0 0 0 0 0 0 0 127 0" result="hardAlpha"/>
<feOffset dy="4"/>
<feGaussianBlur stdDeviation="4.3"/>
<feComposite in2="hardAlpha" operator="out"/>
<feColorMatrix type="matrix" values="0 0 0 0 0.0823529 0 0 0 0 0.192157 0 0 0 0 0.266667 0 0 0 0.21 0"/>
<feBlend mode="normal" in2="BackgroundImageFix" result="effect1_dropShadow_106_2930"/>
<feBlend mode="normal" in="SourceGraphic" in2="effect1_dropShadow_106_2930" result="shape"/>
</filter>
<filter id="filter1_d_106_2930" x="643.4" y="439.4" width="197.2" height="197.2" filterUnits="userSpaceOnUse" color-interpolation-filters="sRGB">
<feFlood flood-opacity="0" result="BackgroundImageFix"/>
<feColorMatrix in="SourceAlpha" type="matrix" values="0 0 0 0 0 0 0 0 0 0 0 0 0 0 0 0 0 0 127 0" result="hardAlpha"/>
<feOffset dy="4"/>
<feGaussianBlur stdDeviation="4.3"/>
<feComposite in2="hardAlpha" operator="out"/>
<feColorMatrix type="matrix" values="0 0 0 0 0.0823529 0 0 0 0 0.192157 0 0 0 0 0.266667 0 0 0 0.21 0"/>
<feBlend mode="normal" in2="BackgroundImageFix" result="effect1_dropShadow_106_2930"/>
<feBlend mode="normal" in="SourceGraphic" in2="effect1_dropShadow_106_2930" result="shape"/>
</filter>
<linearGradient id="paint0_linear_106_2930" x1="532" y1="19" x2="532" y2="2.11948e-06" gradientUnits="userSpaceOnUse">
<stop stop-color="white"/>
<stop offset="1" stop-color="#A2B4BE"/>
</linearGradient>
<linearGradient id="paint1_linear_106_2930" x1="1008" y1="426" x2="1064" y2="426" gradientUnits="userSpaceOnUse">
<stop stop-color="white" stop-opacity="0"/>
<stop offset="1" stop-color="#A2B4BE"/>
</linearGradient>
<linearGradient id="paint2_linear_106_2930" x1="46.5" y1="426" x2="-1.38581e-05" y2="426" gradientUnits="userSpaceOnUse">
<stop stop-color="white" stop-opacity="0"/>
<stop offset="1" stop-color="#A2B4BE"/>
</linearGradient>
</defs>
</svg>
