<svg width="323" height="190" viewBox="0 0 323 190" fill="none" xmlns="http://www.w3.org/2000/svg">
<path d="M6.98783 117.78C5.60319 117.78 4.35702 117.298 3.24931 116.335C2.28006 115.235 1.79543 113.997 1.79543 112.621V12.5447C1.79543 11.169 2.21083 9.99977 3.04161 9.03684C4.01086 7.93633 5.11857 7.38608 6.36475 7.38608H64.5196C66.0427 7.38608 67.2889 7.86755 68.2581 8.83049C69.2274 9.79343 69.712 11.0315 69.712 12.5447C69.712 13.9203 69.2274 15.1584 68.2581 16.2589C67.2889 17.2218 66.0427 17.7033 64.5196 17.7033H12.1802V53.607H55.5887C57.1118 53.607 58.358 54.0885 59.3272 55.0514C60.2965 56.0144 60.7811 57.2524 60.7811 58.7656C60.7811 60.1412 60.2965 61.3793 59.3272 62.4798C58.358 63.4427 57.1118 63.9242 55.5887 63.9242H12.1802V107.463H64.935C66.4581 107.463 67.7043 107.944 68.6735 108.907C69.6428 109.87 70.1274 111.108 70.1274 112.621C70.1274 113.997 69.6428 115.235 68.6735 116.335C67.7043 117.298 66.4581 117.78 64.935 117.78H6.98783Z" fill="#5AB286"/>
<path d="M177.777 21.2111C170.992 17.6345 162.408 15.8462 152.023 15.8462C143.715 15.8462 136.03 17.8408 128.969 21.8301C122.045 25.8194 116.438 31.3907 112.145 38.544C107.853 45.5596 105.707 53.8134 105.707 63.3052C105.707 71.9716 107.576 79.8126 111.314 86.8283C115.053 93.7064 120.453 99.2089 127.515 103.336C134.715 107.325 143.3 109.32 153.269 109.32C158.254 109.32 162.892 108.838 167.185 107.875C171.616 106.912 175.562 105.537 179.023 103.748C179.716 103.336 180.477 103.129 181.308 103.129C182.831 103.129 184.077 103.611 185.047 104.574C186.016 105.537 186.5 106.775 186.5 108.288C186.5 110.489 185.531 112.002 183.593 112.828C179.439 115.029 174.8 116.679 169.677 117.78C164.554 119.018 159.085 119.637 153.269 119.637C141.084 119.637 130.63 117.161 121.907 112.209C113.322 107.256 106.745 100.516 102.176 91.9869C97.6065 83.458 95.3219 73.8975 95.3219 63.3052C95.3219 51.7499 97.9527 41.6391 103.214 32.9727C108.476 24.3063 115.399 17.5657 123.984 12.751C132.569 7.93633 141.915 5.52899 152.023 5.52899C164.485 5.52899 174.731 7.72999 182.762 12.132C184.562 13.2325 185.462 14.7457 185.462 16.6715C185.462 17.9096 184.977 19.0789 184.008 20.1794C183.039 21.2799 181.793 21.8301 180.27 21.8301C179.439 21.8301 178.608 21.6238 177.777 21.2111Z" fill="#5AB286"/>
<path d="M19.4715 190C15.3176 190 11.5964 189.312 8.30784 187.937C5.01932 186.475 2.50966 184.712 0.77886 182.649C0.25962 181.961 0 181.316 0 180.715C0 179.855 0.30289 179.167 0.90867 178.651C1.60099 178.049 2.33658 177.748 3.11544 177.748C3.8943 177.748 4.62989 178.092 5.32221 178.78C6.79339 180.414 8.82708 181.832 11.4233 183.036C14.106 184.24 17.0051 184.841 20.1205 184.841C23.9283 184.841 26.9572 183.896 29.2072 182.004C31.4573 180.113 32.5823 177.748 32.5823 174.911C32.5823 172.676 31.89 170.913 30.5053 169.624C29.1207 168.248 27.4332 167.216 25.4428 166.528C23.4523 165.755 21.4619 165.153 19.4715 164.723C16.5291 164.035 13.63 163.218 10.7742 162.273C8.00495 161.241 5.71164 159.822 3.8943 158.017C2.07696 156.125 1.16829 153.632 1.16829 150.537C1.16829 146.238 2.85582 142.842 6.23088 140.349C9.60594 137.769 14.1926 136.48 19.9907 136.48C23.5389 136.48 26.4812 136.953 28.8178 137.898C31.2409 138.758 33.2746 139.919 34.9189 141.38C35.6112 141.982 35.9574 142.67 35.9574 143.444C35.9574 144.046 35.6977 144.69 35.1785 145.378C34.6593 145.98 34.0535 146.281 33.3612 146.281C32.6688 146.281 31.9333 145.98 31.1544 145.378C30.2025 144.604 28.7745 143.788 26.8707 142.928C24.9668 142.068 22.5004 141.638 19.4715 141.638C15.6637 141.638 12.5916 142.369 10.255 143.831C8.00495 145.292 6.87993 147.485 6.87993 150.408C6.87993 152.385 7.48571 153.933 8.69727 155.051C9.90883 156.082 11.5531 156.942 13.63 157.63C15.7935 158.232 18.1301 158.877 20.6398 159.564C22.9764 160.166 25.5293 160.983 28.2986 162.015C31.0678 162.96 33.4044 164.465 35.3083 166.528C37.2987 168.506 38.2939 171.343 38.2939 175.04C38.2939 179.769 36.4766 183.466 32.8419 186.131C29.2938 188.71 24.837 190 19.4715 190Z" fill="#124C6C"/>
<path d="M73.5515 190C70.0034 190 67.2341 188.968 65.2437 186.905C63.2533 184.755 62.2581 181.832 62.2581 178.135V159.048C62.2581 158.189 61.8254 157.759 60.96 157.759H57.7147C57.0224 157.759 56.4166 157.501 55.8974 156.985C55.3781 156.469 55.1185 155.867 55.1185 155.18C55.1185 154.492 55.3781 153.89 55.8974 153.374C56.4166 152.858 57.0224 152.6 57.7147 152.6H60.96C61.8254 152.6 62.2581 152.17 62.2581 151.311V139.317C62.2581 138.371 62.561 137.683 63.1667 137.253C63.7725 136.738 64.4216 136.48 65.1139 136.48C65.8928 136.48 66.5851 136.738 67.1909 137.253C67.7966 137.683 68.0995 138.371 68.0995 139.317V151.311C68.0995 152.17 68.5322 152.6 69.3976 152.6H78.4843C79.1766 152.6 79.7824 152.858 80.3017 153.374C80.8209 153.89 81.0805 154.492 81.0805 155.18C81.0805 155.867 80.8209 156.469 80.3017 156.985C79.7824 157.501 79.1766 157.759 78.4843 157.759H69.3976C68.5322 157.759 68.0995 158.189 68.0995 159.048V177.748C68.0995 182.219 70.1765 184.455 74.3304 184.455C75.3689 184.455 76.191 184.326 76.7968 184.068C77.4891 183.81 78.0516 183.681 78.4843 183.681C79.2632 183.681 79.869 183.982 80.3017 184.583C80.8209 185.185 81.0805 185.83 81.0805 186.518C81.0805 187.894 80.4315 188.753 79.1334 189.097C78.268 189.441 77.316 189.656 76.2776 189.742C75.3256 189.914 74.4169 190 73.5515 190Z" fill="#124C6C"/>
<path d="M107.103 170.526V187.034C107.103 187.894 106.844 188.581 106.325 189.097C105.805 189.699 105.113 190 104.248 190C103.382 190 102.647 189.699 102.041 189.097C101.522 188.581 101.262 187.894 101.262 187.034V154.793C101.262 153.847 101.565 153.159 102.171 152.729C102.776 152.213 103.469 151.955 104.248 151.955C104.94 151.955 105.589 152.213 106.195 152.729C106.8 153.159 107.103 153.847 107.103 154.793V157.888C108.142 155.738 109.873 154.105 112.296 152.987C114.719 151.869 117.012 151.311 119.176 151.311C120.474 151.311 121.772 151.526 123.07 151.955C123.935 152.213 124.541 152.686 124.887 153.374C125.32 154.062 125.407 154.836 125.147 155.695C124.541 157.415 123.373 158.103 121.642 157.759C120.084 157.329 118.786 157.114 117.748 157.114C114.373 157.114 111.733 158.404 109.829 160.983C108.012 163.476 107.103 166.657 107.103 170.526Z" fill="#124C6C"/>
<path d="M160.906 190C154.848 190 150.001 188.237 146.367 184.712C142.732 181.101 140.915 176.158 140.915 169.882C140.915 166.442 141.694 163.347 143.251 160.596C144.809 157.759 146.973 155.523 149.742 153.89C152.598 152.17 155.929 151.311 159.737 151.311C163.718 151.311 167.007 152.17 169.603 153.89C172.199 155.523 174.103 157.587 175.314 160.08C176.613 162.488 177.262 164.895 177.262 167.302C177.262 168.764 176.915 169.967 176.223 170.913C175.617 171.859 174.709 172.332 173.497 172.332H148.574C148.054 172.332 147.665 172.375 147.405 172.461C147.232 172.547 147.146 172.848 147.146 173.364C147.146 174.825 147.622 176.416 148.574 178.135C149.526 179.855 150.867 181.359 152.598 182.649C154.415 183.853 156.492 184.54 158.829 184.712C161.338 184.884 163.805 184.626 166.228 183.939C168.651 183.251 170.814 182.176 172.718 180.715C173.151 180.371 173.627 180.199 174.146 180.199C174.752 180.199 175.314 180.457 175.834 180.972C176.439 181.488 176.742 182.133 176.742 182.907C176.742 183.681 176.353 184.455 175.574 185.228C173.497 186.862 171.161 188.066 168.564 188.839C165.968 189.613 163.415 190 160.906 190ZM169.084 167.818C169.776 167.818 170.295 167.56 170.641 167.044C170.987 166.442 171.074 165.712 170.901 164.852C170.641 162.616 169.473 160.639 167.396 158.92C165.319 157.114 162.766 156.211 159.737 156.211C157.487 156.211 155.41 156.77 153.506 157.888C151.689 158.92 150.218 160.252 149.093 161.886C147.968 163.519 147.405 165.239 147.405 167.044C147.405 167.474 147.795 167.689 148.574 167.689L169.084 167.818Z" fill="#124C6C"/>
<path d="M216.413 190C211.048 190 206.634 188.195 203.173 184.583C199.711 180.887 197.98 176.158 197.98 170.397C197.98 164.809 199.711 160.252 203.173 156.727C206.634 153.116 211.048 151.311 216.413 151.311C221.952 151.311 226.409 153.245 229.784 157.114V154.793C229.784 153.847 230.087 153.159 230.693 152.729C231.298 152.213 231.947 151.955 232.64 151.955C233.419 151.955 234.111 152.213 234.717 152.729C235.322 153.159 235.625 153.847 235.625 154.793V187.034C235.625 187.894 235.322 188.581 234.717 189.097C234.197 189.699 233.505 190 232.64 190C231.774 190 231.082 189.699 230.563 189.097C230.044 188.581 229.784 187.894 229.784 187.034V183.939C228.226 185.83 226.279 187.335 223.942 188.452C221.692 189.484 219.183 190 216.413 190ZM216.413 184.712C220.481 184.712 223.726 183.509 226.149 181.101C228.572 178.694 229.784 175.126 229.784 170.397C229.784 165.841 228.572 162.402 226.149 160.08C223.726 157.759 220.481 156.598 216.413 156.598C212.692 156.598 209.663 157.931 207.327 160.596C205.077 163.261 203.952 166.528 203.952 170.397C203.952 174.438 205.077 177.834 207.327 180.586C209.663 183.337 212.692 184.712 216.413 184.712Z" fill="#124C6C"/>
<path d="M261.373 190C260.508 190 259.772 189.699 259.167 189.097C258.647 188.581 258.388 187.894 258.388 187.034V154.793C258.388 153.847 258.691 153.159 259.296 152.729C259.902 152.213 260.595 151.955 261.373 151.955C262.066 151.955 262.715 152.213 263.321 152.729C263.926 153.159 264.229 153.847 264.229 154.793V157.501C265.7 155.437 267.561 153.89 269.811 152.858C272.148 151.826 274.527 151.311 276.951 151.311C279.806 151.311 282.359 151.998 284.609 153.374C286.946 154.75 288.72 156.856 289.932 159.693C291.576 156.426 293.739 154.234 296.422 153.116C299.191 151.912 301.788 151.311 304.211 151.311C308.278 151.311 311.696 152.729 314.466 155.566C317.321 158.404 318.749 162.874 318.749 168.979V187.034C318.749 187.894 318.49 188.581 317.971 189.097C317.451 189.699 316.759 190 315.894 190C315.028 190 314.293 189.699 313.687 189.097C313.168 188.581 312.908 187.894 312.908 187.034V169.366C312.908 164.981 312.043 161.8 310.312 159.822C308.667 157.845 306.374 156.856 303.432 156.856C300.489 156.856 298.153 157.587 296.422 159.048C294.691 160.424 293.436 162.144 292.658 164.207C291.879 166.27 291.489 168.377 291.489 170.526V187.034C291.489 187.894 291.23 188.581 290.71 189.097C290.191 189.699 289.499 190 288.633 190C287.768 190 287.032 189.699 286.427 189.097C285.907 188.581 285.648 187.894 285.648 187.034V169.495C285.648 165.11 284.782 161.929 283.052 159.951C281.407 157.888 279.114 156.856 276.172 156.856C273.229 156.856 270.893 157.587 269.162 159.048C267.431 160.424 266.176 162.187 265.397 164.336C264.619 166.399 264.229 168.463 264.229 170.526V187.034C264.229 187.894 263.97 188.581 263.45 189.097C262.931 189.699 262.239 190 261.373 190Z" fill="#124C6C"/>
<path fill-rule="evenodd" clip-rule="evenodd" d="M273.11 33.8918C269.468 32.3366 265.457 31.4706 261.241 31.4706C245.665 31.4711 232.861 43.2857 231.321 58.3629C231.218 59.3681 231.165 60.3877 231.165 61.4194C231.165 63.7929 231.444 66.1005 231.97 68.3121C235.103 81.4959 247.024 91.3086 261.25 91.3086C275.556 91.3077 287.53 81.3851 290.581 68.0911C292.929 58.4804 295.899 50.1058 300.197 48.0758C299.955 48.1883 299.721 48.299 299.492 48.4085C299.721 48.259 299.954 48.128 300.191 48.0162C296.095 49.9258 293.936 51.3111 290.648 55.0249C289.078 47.7976 284.876 41.5458 279.09 37.3017L279.142 37.3921L279.096 37.3581C281.209 40.9873 283.002 46.2017 283.643 51.6407C284.418 58.2996 283.463 65.2876 279.252 70.1096C269.572 81.1912 262.187 79.8186 253.112 75.3311C276.28 62.283 276.591 49.6159 276.253 46.4383C276.202 45.9257 276.132 45.6415 276.127 45.6202C271.718 63.0202 257.417 70.5345 249.801 74.5367C248.427 75.2587 247.27 75.8664 246.428 76.3973L244.663 73.4374L250.342 70.1692L250.283 70.14L250.336 70.1096C247.006 68.4607 245.465 66.8055 245.259 65.06C244.888 61.3626 250.467 57.2563 257.686 51.9439C261.809 48.9094 266.467 45.4812 270.856 41.5111C273.174 39.0324 273.462 36.6733 273.268 34.895C273.231 34.5363 273.174 34.2007 273.11 33.8918ZM261.103 36.3304C260.983 35.291 260.147 34.4867 259.133 34.4866C258.039 34.4872 257.15 35.4266 257.15 36.5867C257.15 36.6547 257.153 36.7219 257.159 36.7883C257.28 37.8259 258.116 38.6301 259.127 38.6304C260.223 38.6304 261.111 37.6881 261.111 36.5272C261.111 36.4608 261.108 36.3952 261.103 36.3304ZM261.241 91.2458C254.664 91.2456 248.582 89.1584 243.632 85.6126C256.845 79.9331 264.549 80.0892 278.824 85.6126C273.878 89.1573 267.805 91.2458 261.241 91.2458Z" fill="#5AB286"/>
<path d="M243.632 85.6126C248.582 89.1584 254.664 91.2456 261.241 91.2458C267.805 91.2458 273.878 89.1573 278.824 85.6126C264.549 80.0892 256.845 79.9331 243.632 85.6126Z" fill="#124C6C"/>
<path fill-rule="evenodd" clip-rule="evenodd" d="M266.214 0.202332C232.219 -2.52522 202.433 22.643 199.686 56.4166C209.596 84.1697 215.865 93.4256 229.337 89.9646C222.455 82.3937 218.264 72.3614 218.264 61.3566C218.265 37.7763 237.506 18.6597 261.241 18.6591C284.977 18.6591 304.218 37.776 304.219 61.3566C304.219 72.7957 299.691 83.1841 292.319 90.8493C306.593 87.7455 313.083 81.8695 322.796 66.2967C325.542 32.5226 300.209 2.93067 266.214 0.202332Z" fill="#5AB286"/>
<path d="M256.269 122.511C290.265 125.239 320.05 100.071 322.796 66.2967C313.083 81.8695 306.593 87.7455 292.319 90.8493C284.493 98.9858 273.463 104.054 261.241 104.054C248.583 104.054 237.202 98.6165 229.337 89.9646C215.865 93.4256 209.596 84.1697 199.686 56.4166C196.94 90.1907 222.273 119.782 256.269 122.511Z" fill="#124C6C"/>
</svg>
