<svg width="474" height="474" viewBox="0 0 474 474" fill="none" xmlns="http://www.w3.org/2000/svg">
<g filter="url(#filter0_ii_21_6881)">
<g clip-path="url(#clip0_21_6881)">
<rect width="474" height="474" rx="81" fill="#1B1B1B"/>
<path d="M192.489 116.293L254.862 108.576L277.95 126.329L192.489 116.293Z" fill="white"/>
<path d="M224.675 181.83L226.993 317.951L233.107 335.817C232.387 336.803 231.391 337.94 230.122 339.228C228.853 340.516 226.013 341.683 221.604 342.732C217.38 343.875 212.757 343.174 207.733 340.629C197.312 335.352 190.242 326.365 186.521 313.669C180.753 321.558 172.1 322.581 160.564 316.738C149.027 310.895 139.657 302.288 132.454 290.917C125.247 279.352 121.546 267.825 121.351 256.335L120.585 211.351C120.256 192.072 125.299 179.471 135.713 173.549C146.123 167.431 159.051 168.284 174.494 176.106C176.913 177.331 179.523 178.943 182.324 180.941C181.744 168.484 179.856 155.172 176.664 141.007L175.169 134.458C175.897 133.861 176.898 133.114 178.174 132.216C179.637 131.412 182.672 130.922 187.281 130.746C191.885 130.376 196.793 131.51 202.003 134.15C216.703 141.595 224.26 157.488 224.675 181.83ZM160.984 260.193C161.114 267.787 162.792 274.236 166.017 279.538C169.427 284.74 175.509 289.848 184.264 294.861L183.18 231.182C182.532 225.642 180.326 220.663 176.562 216.247C172.98 211.73 167.454 206.807 159.985 201.48L160.984 260.193Z" fill="white"/>
<path d="M216.978 302.269L214.505 157.074L208.37 138.011C209.09 136.96 210.084 135.749 211.352 134.376C212.619 133.004 215.458 131.762 219.866 130.648C224.088 129.434 228.713 130.186 233.74 132.906C244.166 138.547 251.247 148.141 254.982 161.687C260.742 153.279 269.393 152.197 280.936 158.443C292.48 164.689 301.86 173.879 309.076 186.017C316.296 198.361 320.01 210.661 320.219 222.916L321.04 271.149C321.391 291.713 316.357 304.899 305.951 311.204C295.546 317.717 282.618 316.793 267.165 308.432C264.745 307.123 262.133 305.401 259.33 303.267C259.925 316.554 261.827 330.755 265.036 345.868L266.538 352.855C265.811 353.491 264.81 354.287 263.535 355.244C262.074 356.099 259.039 356.618 254.431 356.8C249.826 357.19 244.917 355.975 239.703 353.154C224.996 345.195 217.42 328.235 216.978 302.269ZM280.58 218.756C280.442 210.656 278.757 203.776 275.525 198.117C272.109 192.564 266.022 187.109 257.261 181.752L258.417 249.675C259.071 255.586 261.283 260.898 265.053 265.614C268.64 270.435 274.171 275.692 281.647 281.383L280.58 218.756Z" fill="#1B1B1B"/>
<path fill-rule="evenodd" clip-rule="evenodd" d="M207.584 136.721L213.77 155.699L216.232 300.253C216.605 322.166 222.151 337.636 232.869 346.664C234.008 347.623 235.204 348.509 236.459 349.323C236.487 349.341 236.515 349.359 236.544 349.378C237.386 349.92 238.255 350.43 239.15 350.908C242.322 352.601 245.384 353.714 248.333 354.243C250.273 354.592 252.165 354.689 254.008 354.535C258.657 354.353 261.72 353.835 263.194 352.983C264.481 352.031 265.491 351.238 266.225 350.605L264.71 343.649C264.361 342.023 264.027 340.408 263.708 338.803C262.27 331.565 261.146 324.542 260.335 317.736C259.669 312.145 259.214 306.699 258.971 301.399C258.968 301.345 258.966 301.291 258.963 301.236C260.025 302.034 261.061 302.774 262.068 303.456C263.743 304.59 265.343 305.564 266.868 306.377C276.086 311.297 284.414 313.629 291.852 313.372C296.993 313.194 301.709 311.779 306 309.128C309.011 307.327 311.576 304.964 313.696 302.025C318.969 294.716 321.483 283.849 321.234 269.247L320.417 221.227C320.209 209.025 316.464 196.781 309.182 184.493C301.904 172.411 292.442 163.262 280.796 157.047C279.067 156.124 277.402 155.362 275.802 154.761C274.944 154.438 274.105 154.163 273.284 153.933C265.321 151.703 259.096 153.82 254.609 160.283C251.878 150.505 247.373 142.797 241.093 137.157C239.714 135.918 238.249 134.779 236.698 133.74C235.571 132.985 234.4 132.283 233.182 131.633C231.969 130.986 230.779 130.45 229.611 130.027C227.749 129.351 225.946 128.961 224.201 128.856C222.471 128.753 220.799 128.93 219.185 129.388C214.737 130.498 211.873 131.735 210.594 133.102C209.314 134.468 208.311 135.674 207.584 136.721ZM186.985 112.558C191.9 107.31 197.52 104.537 200.71 103.159C204.176 101.661 207.689 100.593 210.821 99.7968C225.3 95.8822 238.617 99.4519 248.619 104.791M270.228 122.465C280.363 123.001 289.294 126.5 296.234 130.204C313.345 139.337 326.807 152.633 336.705 169.064L336.761 169.158L336.817 169.252C346.326 185.298 351.925 202.549 352.234 220.688L353.052 268.708C353.452 292.198 348.066 319.922 322.955 335.07C320.106 336.816 317.229 338.28 314.334 339.486L314.395 343.074L311.214 340.685C306.578 342.319 301.911 343.319 297.262 343.782L301.146 361.624L287.428 373.457C285.849 374.819 284.136 376.138 282.558 377.306L281.106 378.381L279.536 379.288C273.757 382.629 268.029 383.758 265.249 384.227C262.056 384.767 258.835 385.029 255.886 385.161C243.678 385.991 232.708 382.552 223.711 377.75C194.022 361.903 184.926 330.839 184.414 300.792L182.028 160.685L172.653 131.92L181.139 119.687C183.016 116.982 185.102 114.57 186.98 112.564M270.228 122.465C264.495 115.47 257.345 109.448 248.619 104.791L270.228 122.465ZM256.903 180.258C262.971 183.918 267.767 187.624 271.292 191.377C272.902 193.09 274.247 194.813 275.327 196.546C278.587 202.18 280.286 209.029 280.423 217.094L281.485 279.445C280.441 278.661 279.435 277.886 278.467 277.119C277.649 276.471 276.859 275.829 276.094 275.193C271.223 271.138 267.44 267.323 264.746 263.748C260.944 259.055 258.713 253.766 258.055 247.882L256.903 180.258Z" fill="white"/>
<path d="M231.7 376.893C234.926 399.671 262.811 339.256 245.509 341.697C228.208 344.137 190.1 340.866 186.874 318.087C186.542 295.744 179.551 342.858 194.531 340.069C211.832 337.628 228.473 354.115 231.7 376.893Z" fill="#1B1B1B"/>
<path d="M168.963 333.433C234.329 339.523 278.586 357.817 329.18 330.72L330.389 401.725L170.172 404.437L168.963 333.433Z" fill="#1B1B1B"/>
<path d="M243.423 104.894L197.138 105.677L197.259 112.778L243.544 111.994L243.423 104.894Z" fill="white"/>
<path d="M190.714 109.336L239.922 108.503L240.043 115.604L190.835 116.437C186.102 114.779 184.362 113.633 190.714 109.336Z" fill="white"/>
<path d="M230.244 98.9561C243.647 101.661 253.614 104.656 268.09 121.022L262.982 130.363L225.136 108.297L230.244 98.9561Z" fill="white"/>
<g filter="url(#filter1_f_21_6881)">
<ellipse cx="233.5" cy="253.5" rx="126.5" ry="144.5" fill="black" fill-opacity="0.13"/>
</g>
<path d="M456.542 408.046C456.506 424.328 431.235 447.185 445.502 440.237" stroke="url(#paint0_linear_21_6881)" stroke-opacity="0.28" stroke-width="4" stroke-linecap="square"/>
</g>
</g>
<path d="M456.529 404L456.529 93.3626C456.337 73.086 459.531 64.1261 451.526 47.7863C443.521 31.4466 423.104 17.8795 408 16.5" stroke="url(#paint1_linear_21_6881)" stroke-width="4" stroke-linecap="square"/>
<path d="M456.529 404L456.529 93.3626C456.337 73.086 459.531 64.1261 451.526 47.7863C443.521 31.4466 423.104 17.8795 408 16.5" stroke="url(#paint2_linear_21_6881)" stroke-opacity="0.2" stroke-width="4" stroke-linecap="square"/>
<g filter="url(#filter2_d_21_6881)">
<path d="M429.313 23.2773C436 25.4998 437.733 26.8397 440.951 32.1462" stroke="url(#paint3_linear_21_6881)" stroke-width="4" stroke-linecap="round" shape-rendering="crispEdges"/>
</g>
<path d="M84.3524 11.0502C61.5811 10.8057 54.7109 15.0464 42.9999 30.0892" stroke="url(#paint4_linear_21_6881)" stroke-width="4" stroke-linecap="round"/>
<g filter="url(#filter3_d_21_6881)">
<path d="M419 448.488C437.257 442.42 441.989 438.762 450.774 424.275" stroke="url(#paint5_linear_21_6881)" stroke-width="4" stroke-linecap="round" shape-rendering="crispEdges"/>
</g>
<g filter="url(#filter4_d_21_6881)">
<path d="M57.7737 450.488C39.5168 444.421 34.7851 440.763 26 426.275" stroke="url(#paint6_linear_21_6881)" stroke-width="4" stroke-linecap="round" shape-rendering="crispEdges"/>
</g>
<g filter="url(#filter5_d_21_6881)">
<path d="M384 10.9903C403.203 13.4652 407.963 15.6102 416 25.1407" stroke="url(#paint7_linear_21_6881)" stroke-width="4" stroke-linecap="round" shape-rendering="crispEdges"/>
</g>
<path d="M81.5 11L369.277 11C391.766 11.619 402.35 13.3476 416 20" stroke="url(#paint8_linear_21_6881)" stroke-width="4" stroke-linecap="square"/>
<defs>
<filter id="filter0_ii_21_6881" x="-6" y="-2" width="491" height="480" filterUnits="userSpaceOnUse" color-interpolation-filters="sRGB">
<feFlood flood-opacity="0" result="BackgroundImageFix"/>
<feBlend mode="normal" in="SourceGraphic" in2="BackgroundImageFix" result="shape"/>
<feColorMatrix in="SourceAlpha" type="matrix" values="0 0 0 0 0 0 0 0 0 0 0 0 0 0 0 0 0 0 127 0" result="hardAlpha"/>
<feMorphology radius="24" operator="erode" in="SourceAlpha" result="effect1_innerShadow_21_6881"/>
<feOffset dx="11" dy="-2"/>
<feGaussianBlur stdDeviation="17.5"/>
<feComposite in2="hardAlpha" operator="arithmetic" k2="-1" k3="1"/>
<feColorMatrix type="matrix" values="0 0 0 0 0 0 0 0 0 0 0 0 0 0 0 0 0 0 0.5 0"/>
<feBlend mode="normal" in2="shape" result="effect1_innerShadow_21_6881"/>
<feColorMatrix in="SourceAlpha" type="matrix" values="0 0 0 0 0 0 0 0 0 0 0 0 0 0 0 0 0 0 127 0" result="hardAlpha"/>
<feMorphology radius="25" operator="dilate" in="SourceAlpha" result="effect2_innerShadow_21_6881"/>
<feOffset dx="-6" dy="4"/>
<feGaussianBlur stdDeviation="17.5"/>
<feComposite in2="hardAlpha" operator="arithmetic" k2="-1" k3="1"/>
<feColorMatrix type="matrix" values="0 0 0 0 0 0 0 0 0 0 0 0 0 0 0 0 0 0 0.25 0"/>
<feBlend mode="normal" in2="effect1_innerShadow_21_6881" result="effect2_innerShadow_21_6881"/>
</filter>
<filter id="filter1_f_21_6881" x="-24" y="-22" width="515" height="551" filterUnits="userSpaceOnUse" color-interpolation-filters="sRGB">
<feFlood flood-opacity="0" result="BackgroundImageFix"/>
<feBlend mode="normal" in="SourceGraphic" in2="BackgroundImageFix" result="shape"/>
<feGaussianBlur stdDeviation="65.5" result="effect1_foregroundBlur_21_6881"/>
</filter>
<filter id="filter2_d_21_6881" x="423.312" y="21.2768" width="23.6392" height="20.8697" filterUnits="userSpaceOnUse" color-interpolation-filters="sRGB">
<feFlood flood-opacity="0" result="BackgroundImageFix"/>
<feColorMatrix in="SourceAlpha" type="matrix" values="0 0 0 0 0 0 0 0 0 0 0 0 0 0 0 0 0 0 127 0" result="hardAlpha"/>
<feOffset dy="4"/>
<feGaussianBlur stdDeviation="2"/>
<feComposite in2="hardAlpha" operator="out"/>
<feColorMatrix type="matrix" values="0 0 0 0 0 0 0 0 0 0 0 0 0 0 0 0 0 0 0.25 0"/>
<feBlend mode="normal" in2="BackgroundImageFix" result="effect1_dropShadow_21_6881"/>
<feBlend mode="normal" in="SourceGraphic" in2="effect1_dropShadow_21_6881" result="shape"/>
</filter>
<filter id="filter3_d_21_6881" x="413" y="422.275" width="43.7744" height="36.2137" filterUnits="userSpaceOnUse" color-interpolation-filters="sRGB">
<feFlood flood-opacity="0" result="BackgroundImageFix"/>
<feColorMatrix in="SourceAlpha" type="matrix" values="0 0 0 0 0 0 0 0 0 0 0 0 0 0 0 0 0 0 127 0" result="hardAlpha"/>
<feOffset dy="4"/>
<feGaussianBlur stdDeviation="2"/>
<feComposite in2="hardAlpha" operator="out"/>
<feColorMatrix type="matrix" values="0 0 0 0 0 0 0 0 0 0 0 0 0 0 0 0 0 0 0.25 0"/>
<feBlend mode="normal" in2="BackgroundImageFix" result="effect1_dropShadow_21_6881"/>
<feBlend mode="normal" in="SourceGraphic" in2="effect1_dropShadow_21_6881" result="shape"/>
</filter>
<filter id="filter4_d_21_6881" x="19.9998" y="424.275" width="43.7744" height="36.2137" filterUnits="userSpaceOnUse" color-interpolation-filters="sRGB">
<feFlood flood-opacity="0" result="BackgroundImageFix"/>
<feColorMatrix in="SourceAlpha" type="matrix" values="0 0 0 0 0 0 0 0 0 0 0 0 0 0 0 0 0 0 127 0" result="hardAlpha"/>
<feOffset dy="4"/>
<feGaussianBlur stdDeviation="2"/>
<feComposite in2="hardAlpha" operator="out"/>
<feColorMatrix type="matrix" values="0 0 0 0 0 0 0 0 0 0 0 0 0 0 0 0 0 0 0.25 0"/>
<feBlend mode="normal" in2="BackgroundImageFix" result="effect1_dropShadow_21_6881"/>
<feBlend mode="normal" in="SourceGraphic" in2="effect1_dropShadow_21_6881" result="shape"/>
</filter>
<filter id="filter5_d_21_6881" x="378" y="8.99012" width="44.0002" height="26.1506" filterUnits="userSpaceOnUse" color-interpolation-filters="sRGB">
<feFlood flood-opacity="0" result="BackgroundImageFix"/>
<feColorMatrix in="SourceAlpha" type="matrix" values="0 0 0 0 0 0 0 0 0 0 0 0 0 0 0 0 0 0 127 0" result="hardAlpha"/>
<feOffset dy="4"/>
<feGaussianBlur stdDeviation="2"/>
<feComposite in2="hardAlpha" operator="out"/>
<feColorMatrix type="matrix" values="0 0 0 0 0 0 0 0 0 0 0 0 0 0 0 0 0 0 0.25 0"/>
<feBlend mode="normal" in2="BackgroundImageFix" result="effect1_dropShadow_21_6881"/>
<feBlend mode="normal" in="SourceGraphic" in2="effect1_dropShadow_21_6881" result="shape"/>
</filter>
<linearGradient id="paint0_linear_21_6881" x1="455.485" y1="409.178" x2="445.749" y2="411.262" gradientUnits="userSpaceOnUse">
<stop stop-color="white"/>
<stop offset="1" stop-color="white" stop-opacity="0"/>
</linearGradient>
<linearGradient id="paint1_linear_21_6881" x1="456.522" y1="340.166" x2="410.132" y2="27.2405" gradientUnits="userSpaceOnUse">
<stop offset="0.547137" stop-color="white" stop-opacity="0.3"/>
<stop offset="1" stop-color="white" stop-opacity="0"/>
</linearGradient>
<linearGradient id="paint2_linear_21_6881" x1="467" y1="448" x2="473.5" y2="427" gradientUnits="userSpaceOnUse">
<stop stop-color="white"/>
<stop offset="1"/>
</linearGradient>
<linearGradient id="paint3_linear_21_6881" x1="431" y1="21.9998" x2="430" y2="23.4998" gradientUnits="userSpaceOnUse">
<stop stop-color="white"/>
<stop offset="1" stop-color="#585656" stop-opacity="0"/>
</linearGradient>
<linearGradient id="paint4_linear_21_6881" x1="60.7281" y1="13.7537" x2="38.8606" y2="16.3337" gradientUnits="userSpaceOnUse">
<stop stop-color="white"/>
<stop offset="1" stop-color="#585656" stop-opacity="0"/>
</linearGradient>
<linearGradient id="paint5_linear_21_6881" x1="423.606" y1="451.976" x2="420.876" y2="447.881" gradientUnits="userSpaceOnUse">
<stop stop-color="white"/>
<stop offset="1" stop-color="#585656" stop-opacity="0"/>
</linearGradient>
<linearGradient id="paint6_linear_21_6881" x1="53.1673" y1="453.976" x2="55.8974" y2="449.881" gradientUnits="userSpaceOnUse">
<stop stop-color="white"/>
<stop offset="1" stop-color="#585656" stop-opacity="0"/>
</linearGradient>
<linearGradient id="paint7_linear_21_6881" x1="389.367" y1="7.99658" x2="387.904" y2="11.9474" gradientUnits="userSpaceOnUse">
<stop stop-color="white"/>
<stop offset="1" stop-color="#585656" stop-opacity="0"/>
</linearGradient>
<linearGradient id="paint8_linear_21_6881" x1="412.5" y1="21" x2="414" y2="18.5" gradientUnits="userSpaceOnUse">
<stop stop-color="white"/>
<stop offset="0.520833" stop-color="white" stop-opacity="0"/>
</linearGradient>
<clipPath id="clip0_21_6881">
<rect width="474" height="474" rx="81" fill="white"/>
</clipPath>
</defs>
</svg>
