<svg width="704" height="648" viewBox="0 0 704 648" fill="none" xmlns="http://www.w3.org/2000/svg">
<rect width="230.264" height="80.9621" rx="5" transform="matrix(0.866024 -0.500649 2.22557e-08 1 147.195 255.077)" fill="#8F6600"/>
<path d="M457.662 215.911C455.27 214.53 455.27 212.292 457.662 210.911L628.008 112.562C630.4 111.181 634.277 111.181 636.668 112.562L693.162 145.178C698.901 148.492 698.901 153.864 693.162 157.178L528.878 252.028C526.486 253.408 522.609 253.408 520.217 252.028L457.662 215.911Z" fill="#FFD600"/>
<rect width="87.557" height="253.559" rx="5" transform="matrix(0.866012 0.509282 -2.28397e-08 1 210.023 284.886)" fill="#8F6600"/>
<rect width="78.309" height="189.033" rx="5" transform="matrix(0.866015 0.508177 -2.28018e-08 1 435.873 112.693)" fill="#8F6600"/>
<rect width="77.5565" height="186.863" rx="5" transform="matrix(0.866015 0.508165 -2.28014e-08 1 455.027 104.848)" fill="#8F6600"/>
<path d="M438.041 336.379C438.041 333.617 439.979 332.506 442.371 333.896L501.979 368.55C504.057 369.758 505.742 372.683 505.742 375.082L505.742 379.227C505.742 420.129 477.026 436.593 441.604 416V416C439.636 414.856 438.041 412.087 438.041 409.814L438.041 336.379Z" fill="#8F6600"/>
<rect width="87.5227" height="227.413" rx="5" transform="matrix(0.866025 0.5 -0.866025 0.5 342.5 219.974)" fill="#B78E00"/>
<rect width="87.5227" height="84.3196" rx="5" transform="matrix(0.866025 0.5 -0.866025 0.5 281.758 496.069)" fill="#B78E00"/>
<rect width="77.4776" height="226.14" rx="5" transform="matrix(0.866025 0.5 -0.866025 0.5 632.377 300.471)" fill="#B78E00"/>
<rect width="211.942" height="77.1709" rx="5" transform="matrix(0.866025 -0.5 0.866025 0.5 437.021 332.049)" fill="#FFD600"/>
<rect width="82.2328" height="225.405" rx="5" transform="matrix(0.866025 0.5 -0.866025 0.5 630.314 189.136)" fill="#B78E00"/>
<rect width="226.14" height="84.0382" rx="5" transform="matrix(0.866025 -0.5 0.866025 0.5 146.654 252.865)" fill="#FFD600"/>
<rect width="226.14" height="83.873" rx="5" transform="matrix(0.866024 -0.50073 2.22667e-08 1 220.664 294.147)" fill="white"/>
<rect width="226.14" height="83.873" rx="5" transform="matrix(0.866024 -0.50073 2.22667e-08 1 504.367 153.811)" fill="white"/>
<rect width="226.14" height="81.3568" rx="5" transform="matrix(0.866024 -0.500683 2.22604e-08 1 504.367 370.672)" fill="white"/>
<rect width="226.14" height="83.873" rx="5" transform="matrix(0.866024 -0.50073 2.22667e-08 1 504.367 261.254)" fill="white"/>
<rect width="224.799" height="82.2328" rx="5" transform="matrix(0.866025 -0.5 0.866025 0.5 433.574 112.399)" fill="#FFD600"/>
<rect width="82.2344" height="245.823" rx="5" transform="matrix(0.866008 -0.510631 2.27943e-08 1 284.394 335.975)" fill="white"/>
<rect width="82.2333" height="122.839" rx="5" transform="matrix(0.86602 -0.506202 2.26398e-08 1 504.367 154.697)" fill="white"/>
<rect width="82.2333" height="122.839" rx="5" transform="matrix(0.86602 -0.506202 2.26398e-08 1 628.744 210.204)" fill="white"/>
<path d="M362.794 619.629L355.876 623.623L375.683 635.059L370.202 638.223L350.395 626.787L343.511 630.762L339.063 628.193L358.345 617.061L362.794 619.629ZM394.052 596.445L411.897 614.15L405.841 617.646L386.254 610.986C385.228 610.641 384.191 610.192 383.142 609.639L383.074 609.678C384.078 610.374 384.839 610.983 385.358 611.504L396.792 622.871L390.483 626.514L359.851 616.191L365.821 612.744L385.392 620.098C386.226 620.41 387.258 620.882 388.487 621.514L388.588 621.455C387.765 620.928 386.982 620.286 386.237 619.531L374.549 607.705L380.402 604.326L400.665 611.436C401.41 611.696 402.408 612.122 403.659 612.715L403.727 612.676C402.881 612.135 402.098 611.546 401.376 610.908L388.538 599.629L394.052 596.445ZM426.849 605.518L421.386 608.672L397.13 594.668L402.594 591.514L426.849 605.518ZM454.2 589.727L448.686 592.91L423.449 589.883C421.972 589.707 420.895 589.554 420.219 589.424L420.151 589.463C421.098 589.906 422.451 590.635 424.211 591.65L437.539 599.346L432.38 602.324L408.125 588.32L414.011 584.922L438.402 587.891C439.507 588.021 440.573 588.167 441.599 588.33L441.666 588.291C441.012 588.018 439.857 587.402 438.199 586.445L424.786 578.701L429.945 575.723L454.2 589.727ZM467.275 581.104L461.862 577.979C463.667 577.887 465.352 577.63 466.92 577.207C468.476 576.777 469.84 576.224 471.013 575.547C471.701 575.15 472.237 574.769 472.62 574.404C473.015 574.033 473.274 573.688 473.398 573.369C473.522 573.037 473.522 572.738 473.398 572.471C473.263 572.197 473.02 571.96 472.671 571.758C472.197 571.484 471.639 571.318 470.996 571.26C470.353 571.201 469.637 571.217 468.848 571.309C468.07 571.393 467.213 571.536 466.277 571.738C465.341 571.94 464.349 572.168 463.3 572.422C460.616 573.06 458.237 573.32 456.162 573.203C454.099 573.079 452.261 572.552 450.648 571.621C449.385 570.892 448.556 570.12 448.162 569.307C447.756 568.486 447.694 567.656 447.976 566.816C448.269 565.97 448.855 565.137 449.735 564.316C450.603 563.49 451.68 562.705 452.965 561.963C454.228 561.234 455.424 560.635 456.551 560.166C457.679 559.684 458.812 559.297 459.951 559.004L465.008 561.924C464.321 561.995 463.627 562.109 462.928 562.266C462.24 562.415 461.575 562.598 460.932 562.812C460.278 563.021 459.663 563.252 459.088 563.506C458.525 563.753 458.017 564.007 457.566 564.268C456.946 564.626 456.444 564.987 456.061 565.352C455.666 565.71 455.401 566.051 455.266 566.377C455.13 566.702 455.119 567.008 455.232 567.295C455.333 567.575 455.57 567.822 455.942 568.037C456.348 568.271 456.822 568.421 457.363 568.486C457.893 568.545 458.502 568.545 459.19 568.486C459.866 568.421 460.628 568.307 461.473 568.145C462.308 567.975 463.227 567.77 464.23 567.529C465.606 567.204 466.909 566.953 468.138 566.777C469.367 566.589 470.545 566.501 471.673 566.514C472.8 566.527 473.883 566.663 474.92 566.924C475.947 567.178 476.95 567.588 477.931 568.154C479.284 568.936 480.164 569.743 480.57 570.576C480.976 571.396 481.027 572.227 480.722 573.066C480.406 573.9 479.786 574.727 478.861 575.547C477.948 576.361 476.843 577.142 475.546 577.891C474.216 578.659 472.834 579.326 471.402 579.893C469.981 580.452 468.606 580.856 467.275 581.104ZM485.966 548.516L479.048 552.51L498.854 563.945L493.374 567.109L473.567 555.674L466.683 559.648L462.234 557.08L481.517 545.947L485.966 548.516ZM518.306 540.586C525.591 544.792 525.839 548.854 519.05 552.773C512.465 556.576 505.615 556.423 498.499 552.314L484.494 544.229L489.974 541.064L504.047 549.189C507.971 551.455 511.467 551.702 514.534 549.932C517.545 548.193 517.156 546.23 513.367 544.043L499.091 535.801L504.555 532.646L518.306 540.586ZM534.104 543.594L509.849 529.59L518.442 524.629C527.057 519.655 535.305 519.443 543.188 523.994C546.965 526.175 548.803 528.597 548.702 531.26C548.611 533.916 546.61 536.374 542.697 538.633L534.104 543.594ZM519.761 529.004L535.136 537.881L537.843 536.318C540.211 534.951 541.355 533.47 541.276 531.875C541.209 530.273 539.951 528.766 537.504 527.354C535.193 526.019 532.706 525.358 530.045 525.371C527.384 525.371 524.847 526.068 522.433 527.461L519.761 529.004ZM565.109 525.693L559.645 528.848L535.39 514.844L540.853 511.689L565.109 525.693ZM581.313 516.826C577.84 518.831 573.882 519.814 569.439 519.775C564.985 519.73 560.942 518.659 557.311 516.562C553.477 514.349 551.487 511.917 551.34 509.268C551.194 506.618 552.953 504.235 556.618 502.119C560.08 500.12 564.009 499.16 568.407 499.238C572.816 499.31 576.876 500.417 580.586 502.559C584.397 504.759 586.359 507.174 586.472 509.805C586.596 512.428 584.876 514.769 581.313 516.826ZM561.168 504.922C559.251 506.029 558.45 507.324 558.766 508.809C559.07 510.286 560.407 511.709 562.775 513.076C565.176 514.463 567.64 515.234 570.166 515.391C572.692 515.547 574.869 515.098 576.695 514.043C578.578 512.956 579.396 511.702 579.148 510.283C578.889 508.857 577.552 507.448 575.139 506.055C572.625 504.603 570.132 503.783 567.663 503.594C565.193 503.405 563.028 503.848 561.168 504.922ZM594.878 507.432L589.466 504.307C591.27 504.215 592.956 503.958 594.523 503.535C596.079 503.105 597.444 502.552 598.617 501.875C599.304 501.478 599.84 501.097 600.223 500.732C600.618 500.361 600.877 500.016 601.002 499.697C601.126 499.365 601.126 499.066 601.002 498.799C600.866 498.525 600.624 498.288 600.274 498.086C599.801 497.812 599.242 497.646 598.6 497.588C597.957 497.529 597.241 497.546 596.452 497.637C595.673 497.721 594.816 497.865 593.88 498.066C592.945 498.268 591.952 498.496 590.904 498.75C588.22 499.388 585.84 499.648 583.766 499.531C581.702 499.408 579.864 498.88 578.251 497.949C576.988 497.22 576.16 496.449 575.765 495.635C575.359 494.814 575.297 493.984 575.579 493.145C575.872 492.298 576.458 491.465 577.338 490.645C578.206 489.818 579.283 489.033 580.569 488.291C581.832 487.562 583.027 486.963 584.155 486.494C585.282 486.012 586.416 485.625 587.554 485.332L592.612 488.252C591.924 488.324 591.231 488.438 590.531 488.594C589.844 488.743 589.178 488.926 588.535 489.141C587.881 489.349 587.267 489.58 586.692 489.834C586.128 490.081 585.621 490.335 585.169 490.596C584.549 490.954 584.047 491.315 583.664 491.68C583.269 492.038 583.004 492.38 582.869 492.705C582.734 493.031 582.723 493.337 582.835 493.623C582.937 493.903 583.174 494.15 583.546 494.365C583.952 494.6 584.425 494.749 584.967 494.814C585.497 494.873 586.105 494.873 586.793 494.814C587.47 494.749 588.231 494.635 589.077 494.473C589.911 494.303 590.83 494.098 591.834 493.857C593.21 493.532 594.512 493.281 595.741 493.105C596.97 492.917 598.149 492.829 599.276 492.842C600.404 492.855 601.486 492.992 602.524 493.252C603.55 493.506 604.554 493.916 605.535 494.482C606.888 495.264 607.767 496.071 608.173 496.904C608.579 497.725 608.63 498.555 608.326 499.395C608.01 500.228 607.39 501.055 606.465 501.875C605.552 502.689 604.446 503.47 603.15 504.219C601.819 504.987 600.438 505.654 599.006 506.221C597.585 506.781 596.209 507.184 594.878 507.432Z" fill="white"/>
</svg>
